<svg width="44" height="11" viewBox="0 0 44 11" fill="none" xmlns="http://www.w3.org/2000/svg">
<path d="M2.0803 8.44601H5.3003V10H0.1203V0.228013H2.0803V8.44601Z" fill="url(#paint0_linear_72_3)"/>
<path d="M11.0821 10.098C10.1674 10.098 9.32741 9.88335 8.56208 9.45401C7.79675 9.02468 7.19008 8.43201 6.74208 7.67601C6.29408 6.91068 6.07008 6.04735 6.07008 5.08601C6.07008 4.13401 6.29408 3.28001 6.74208 2.52401C7.19008 1.75868 7.79675 1.16135 8.56208 0.732012C9.32741 0.302679 10.1674 0.0880127 11.0821 0.0880127C12.0061 0.0880127 12.8461 0.302679 13.6021 0.732012C14.3674 1.16135 14.9694 1.75868 15.4081 2.52401C15.8561 3.28001 16.0801 4.13401 16.0801 5.08601C16.0801 6.04735 15.8561 6.91068 15.4081 7.67601C14.9694 8.43201 14.3674 9.02468 13.6021 9.45401C12.8367 9.88335 11.9967 10.098 11.0821 10.098ZM11.0821 8.34801C11.6701 8.34801 12.1881 8.21735 12.6361 7.95601C13.0841 7.68535 13.4341 7.30268 13.6861 6.80801C13.9381 6.31335 14.0641 5.73935 14.0641 5.08601C14.0641 4.43268 13.9381 3.86335 13.6861 3.37801C13.4341 2.88335 13.0841 2.50535 12.6361 2.24401C12.1881 1.98268 11.6701 1.85201 11.0821 1.85201C10.4941 1.85201 9.97142 1.98268 9.51408 2.24401C9.06608 2.50535 8.71608 2.88335 8.46408 3.37801C8.21208 3.86335 8.08608 4.43268 8.08608 5.08601C8.08608 5.73935 8.21208 6.31335 8.46408 6.80801C8.71608 7.30268 9.06608 7.68535 9.51408 7.95601C9.97142 8.21735 10.4941 8.34801 11.0821 8.34801Z" fill="url(#paint1_linear_72_3)"/>
<path d="M24.3423 3.16801C24.1183 2.75735 23.8103 2.44468 23.4183 2.23001C23.0263 2.01535 22.5689 1.90801 22.0463 1.90801C21.4676 1.90801 20.9543 2.03868 20.5063 2.30001C20.0583 2.56135 19.7083 2.93468 19.4563 3.42001C19.2043 3.90535 19.0783 4.46535 19.0783 5.10001C19.0783 5.75335 19.2043 6.32268 19.4563 6.80801C19.7176 7.29335 20.0769 7.66668 20.5343 7.92801C20.9916 8.18935 21.5236 8.32001 22.1303 8.32001C22.8769 8.32001 23.4883 8.12401 23.9643 7.73201C24.4403 7.33068 24.7529 6.77535 24.9023 6.06601H21.5423V4.56801H26.8343V6.27601C26.7036 6.95735 26.4236 7.58735 25.9943 8.16601C25.5649 8.74468 25.0096 9.21135 24.3283 9.56601C23.6563 9.91135 22.9003 10.084 22.0603 10.084C21.1176 10.084 20.2636 9.87401 19.4983 9.45401C18.7423 9.02468 18.1449 8.43201 17.7063 7.67601C17.2769 6.92001 17.0623 6.06135 17.0623 5.10001C17.0623 4.13868 17.2769 3.28001 17.7063 2.52401C18.1449 1.75868 18.7423 1.16601 19.4983 0.746013C20.2636 0.316679 21.1129 0.102013 22.0463 0.102013C23.1476 0.102013 24.1043 0.372679 24.9163 0.914012C25.7283 1.44601 26.2883 2.19735 26.5963 3.16801H24.3423Z" fill="url(#paint2_linear_72_3)"/>
<path d="M33.5803 0.228013V10H31.6203V0.228013H33.5803Z" fill="url(#paint3_linear_72_3)"/>
<path d="M43.8748 10H41.9148L37.4768 3.29401V10H35.5168V0.214012H37.4768L41.9148 6.93401V0.214012H43.8748V10Z" fill="url(#paint4_linear_72_3)"/>
<defs>
<linearGradient id="paint0_linear_72_3" x1="-1" y1="5.11112" x2="45" y2="5.11112" gradientUnits="userSpaceOnUse">
<stop/>
<stop offset="1" stop-color="#D7562E"/>
</linearGradient>
<linearGradient id="paint1_linear_72_3" x1="-1" y1="5.11112" x2="45" y2="5.11112" gradientUnits="userSpaceOnUse">
<stop/>
<stop offset="1" stop-color="#D7562E"/>
</linearGradient>
<linearGradient id="paint2_linear_72_3" x1="-1" y1="5.11112" x2="45" y2="5.11112" gradientUnits="userSpaceOnUse">
<stop/>
<stop offset="1" stop-color="#D7562E"/>
</linearGradient>
<linearGradient id="paint3_linear_72_3" x1="-1" y1="5.11112" x2="45" y2="5.11112" gradientUnits="userSpaceOnUse">
<stop/>
<stop offset="1" stop-color="#D7562E"/>
</linearGradient>
<linearGradient id="paint4_linear_72_3" x1="-1" y1="5.11112" x2="45" y2="5.11112" gradientUnits="userSpaceOnUse">
<stop/>
<stop offset="1" stop-color="#D7562E"/>
</linearGradient>
</defs>
</svg>
