<svg width="796" height="151" viewBox="0 0 796 151" fill="none" xmlns="http://www.w3.org/2000/svg">
<path d="M78.25 37.8C75.85 33.4 72.55 30.05 68.35 27.75C64.15 25.45 59.25 24.3 53.65 24.3C47.45 24.3 41.95 25.7 37.15 28.5C32.35 31.3 28.6 35.3 25.9 40.5C23.2 45.7 21.85 51.7 21.85 58.5C21.85 65.5 23.2 71.6 25.9 76.8C28.7 82 32.55 86 37.45 88.8C42.35 91.6 48.05 93 54.55 93C62.55 93 69.1 90.9 74.2 86.7C79.3 82.4 82.65 76.45 84.25 68.85H48.25V52.8H104.95V71.1C103.55 78.4 100.55 85.15 95.95 91.35C91.35 97.55 85.4 102.55 78.1 106.35C70.9 110.05 62.8 111.9 53.8 111.9C43.7 111.9 34.55 109.65 26.35 105.15C18.25 100.55 11.85 94.2 7.15 86.1C2.55 78 0.25 68.8 0.25 58.5C0.25 48.2 2.55 39 7.15 30.9C11.85 22.7 18.25 16.35 26.35 11.85C34.55 7.25 43.65 4.95 53.65 4.95C65.45 4.95 75.7 7.85 84.4 13.65C93.1 19.35 99.1 27.4 102.4 37.8H78.25Z" fill="url(#paint0_linear_72_4)"/>
<path d="M141.487 40.8C144.187 36.4 147.687 32.95 151.987 30.45C156.387 27.95 161.387 26.7 166.987 26.7V48.75H161.437C154.837 48.75 149.837 50.3 146.437 53.4C143.137 56.5 141.487 61.9 141.487 69.6V111H120.487V27.9H141.487V40.8Z" fill="url(#paint1_linear_72_4)"/>
<path d="M175.731 69.15C175.731 60.75 177.381 53.3 180.681 46.8C184.081 40.3 188.631 35.3 194.331 31.8C200.131 28.3 206.581 26.55 213.681 26.55C219.881 26.55 225.281 27.8 229.881 30.3C234.581 32.8 238.331 35.95 241.131 39.75V27.9H262.281V111H241.131V98.85C238.431 102.75 234.681 106 229.881 108.6C225.181 111.1 219.731 112.35 213.531 112.35C206.531 112.35 200.131 110.55 194.331 106.95C188.631 103.35 184.081 98.3 180.681 91.8C177.381 85.2 175.731 77.65 175.731 69.15ZM241.131 69.45C241.131 64.35 240.131 60 238.131 56.4C236.131 52.7 233.431 49.9 230.031 48C226.631 46 222.981 45 219.081 45C215.181 45 211.581 45.95 208.281 47.85C204.981 49.75 202.281 52.55 200.181 56.25C198.181 59.85 197.181 64.15 197.181 69.15C197.181 74.15 198.181 78.55 200.181 82.35C202.281 86.05 204.981 88.9 208.281 90.9C211.681 92.9 215.281 93.9 219.081 93.9C222.981 93.9 226.631 92.95 230.031 91.05C233.431 89.05 236.131 86.25 238.131 82.65C240.131 78.95 241.131 74.55 241.131 69.45Z" fill="url(#paint2_linear_72_4)"/>
<path d="M303.791 39.9C306.491 36.1 310.191 32.95 314.891 30.45C319.691 27.85 325.141 26.55 331.241 26.55C338.341 26.55 344.741 28.3 350.441 31.8C356.241 35.3 360.791 40.3 364.091 46.8C367.491 53.2 369.191 60.65 369.191 69.15C369.191 77.65 367.491 85.2 364.091 91.8C360.791 98.3 356.241 103.35 350.441 106.95C344.741 110.55 338.341 112.35 331.241 112.35C325.141 112.35 319.741 111.1 315.041 108.6C310.441 106.1 306.691 102.95 303.791 99.15V150.6H282.791V27.9H303.791V39.9ZM347.741 69.15C347.741 64.15 346.691 59.85 344.591 56.25C342.591 52.55 339.891 49.75 336.491 47.85C333.191 45.95 329.591 45 325.691 45C321.891 45 318.291 46 314.891 48C311.591 49.9 308.891 52.7 306.791 56.4C304.791 60.1 303.791 64.45 303.791 69.45C303.791 74.45 304.791 78.8 306.791 82.5C308.891 86.2 311.591 89.05 314.891 91.05C318.291 92.95 321.891 93.9 325.691 93.9C329.591 93.9 333.191 92.9 336.491 90.9C339.891 88.9 342.591 86.05 344.591 82.35C346.691 78.65 347.741 74.25 347.741 69.15Z" fill="url(#paint3_linear_72_4)"/>
<path d="M431.252 26.7C437.552 26.7 443.152 28.1 448.052 30.9C452.952 33.6 456.752 37.65 459.452 43.05C462.252 48.35 463.652 54.75 463.652 62.25V111H442.652V65.1C442.652 58.5 441.002 53.45 437.702 49.95C434.402 46.35 429.902 44.55 424.202 44.55C418.402 44.55 413.802 46.35 410.402 49.95C407.102 53.45 405.452 58.5 405.452 65.1V111H384.452V0H405.452V38.25C408.152 34.65 411.752 31.85 416.252 29.85C420.752 27.75 425.752 26.7 431.252 26.7Z" fill="url(#paint4_linear_72_4)"/>
<path d="M515.422 112.35C508.622 112.35 502.521 111.15 497.121 108.75C491.721 106.25 487.421 102.9 484.221 98.7C481.121 94.5 479.421 89.85 479.121 84.75H500.271C500.671 87.95 502.221 90.6 504.921 92.7C507.721 94.8 511.171 95.85 515.271 95.85C519.271 95.85 522.371 95.05 524.571 93.45C526.871 91.85 528.021 89.8 528.021 87.3C528.021 84.6 526.621 82.6 523.821 81.3C521.121 79.9 516.771 78.4 510.771 76.8C504.571 75.3 499.471 73.75 495.471 72.15C491.571 70.55 488.171 68.1 485.271 64.8C482.471 61.5 481.071 57.05 481.071 51.45C481.071 46.85 482.371 42.65 484.971 38.85C487.671 35.05 491.471 32.05 496.371 29.85C501.371 27.65 507.222 26.55 513.922 26.55C523.822 26.55 531.721 29.05 537.621 34.05C543.521 38.95 546.771 45.6 547.371 54H527.271C526.971 50.7 525.571 48.1 523.071 46.2C520.671 44.2 517.421 43.2 513.321 43.2C509.521 43.2 506.571 43.9 504.471 45.3C502.471 46.7 501.471 48.65 501.471 51.15C501.471 53.95 502.871 56.1 505.671 57.6C508.471 59 512.821 60.45 518.721 61.95C524.721 63.45 529.671 65 533.571 66.6C537.471 68.2 540.821 70.7 543.621 74.1C546.521 77.4 548.021 81.8 548.121 87.3C548.121 92.1 546.771 96.4 544.071 100.2C541.471 104 537.672 107 532.672 109.2C527.772 111.3 522.022 112.35 515.422 112.35Z" fill="url(#paint5_linear_72_4)"/>
<path d="M663.802 111L641.152 75.75L620.602 111H596.902L629.902 58.2L596.452 6.3H620.602L643.252 41.4L663.652 6.3H687.352L654.502 58.95L687.952 111H663.802Z" fill="url(#paint6_linear_72_4)"/>
<path d="M740.534 6.3C751.534 6.3 761.184 8.45 769.484 12.75C777.884 17.05 784.334 23.2 788.834 31.2C793.434 39.1 795.734 48.3 795.734 58.8C795.734 69.3 793.434 78.5 788.834 86.4C784.334 94.2 777.884 100.25 769.484 104.55C761.184 108.85 751.534 111 740.534 111H703.934V6.3H740.534ZM739.784 93.15C750.784 93.15 759.284 90.15 765.284 84.15C771.284 78.15 774.284 69.7 774.284 58.8C774.284 47.9 771.284 39.4 765.284 33.3C759.284 27.1 750.784 24 739.784 24H724.934V93.15H739.784Z" fill="url(#paint7_linear_72_4)"/>
<defs>
<linearGradient id="paint0_linear_72_4" x1="-5" y1="57.9999" x2="802" y2="57.9999" gradientUnits="userSpaceOnUse">
<stop stop-color="#D7562E"/>
<stop offset="1" stop-color="#FFA24B"/>
</linearGradient>
<linearGradient id="paint1_linear_72_4" x1="-5" y1="57.9999" x2="802" y2="57.9999" gradientUnits="userSpaceOnUse">
<stop stop-color="#D7562E"/>
<stop offset="1" stop-color="#FFA24B"/>
</linearGradient>
<linearGradient id="paint2_linear_72_4" x1="-5" y1="57.9999" x2="802" y2="57.9999" gradientUnits="userSpaceOnUse">
<stop stop-color="#D7562E"/>
<stop offset="1" stop-color="#FFA24B"/>
</linearGradient>
<linearGradient id="paint3_linear_72_4" x1="-5" y1="57.9999" x2="802" y2="57.9999" gradientUnits="userSpaceOnUse">
<stop stop-color="#D7562E"/>
<stop offset="1" stop-color="#FFA24B"/>
</linearGradient>
<linearGradient id="paint4_linear_72_4" x1="-5" y1="57.9999" x2="802" y2="57.9999" gradientUnits="userSpaceOnUse">
<stop stop-color="#D7562E"/>
<stop offset="1" stop-color="#FFA24B"/>
</linearGradient>
<linearGradient id="paint5_linear_72_4" x1="-5" y1="57.9999" x2="802" y2="57.9999" gradientUnits="userSpaceOnUse">
<stop stop-color="#D7562E"/>
<stop offset="1" stop-color="#FFA24B"/>
</linearGradient>
<linearGradient id="paint6_linear_72_4" x1="-5" y1="57.9999" x2="802" y2="57.9999" gradientUnits="userSpaceOnUse">
<stop stop-color="#D7562E"/>
<stop offset="1" stop-color="#FFA24B"/>
</linearGradient>
<linearGradient id="paint7_linear_72_4" x1="-5" y1="57.9999" x2="802" y2="57.9999" gradientUnits="userSpaceOnUse">
<stop stop-color="#D7562E"/>
<stop offset="1" stop-color="#FFA24B"/>
</linearGradient>
</defs>
</svg>
