<svg width="63" height="11" viewBox="0 0 63 11" fill="none" xmlns="http://www.w3.org/2000/svg">
<path d="M5.45913 10L3.30313 6.19201H2.37913V10H0.419128V0.228013H4.08713C4.84313 0.228013 5.48713 0.363346 6.01913 0.634012C6.55113 0.895346 6.9478 1.25468 7.20913 1.71201C7.47979 2.16001 7.61513 2.66401 7.61513 3.22401C7.61513 3.86801 7.42846 4.45135 7.05513 4.97401C6.6818 5.48735 6.12646 5.84201 5.38913 6.03801L7.72713 10H5.45913ZM2.37913 4.72201H4.01713C4.54913 4.72201 4.9458 4.59601 5.20713 4.34401C5.46846 4.08268 5.59913 3.72335 5.59913 3.26601C5.59913 2.81801 5.46846 2.47268 5.20713 2.23001C4.9458 1.97801 4.54913 1.85201 4.01713 1.85201H2.37913V4.72201Z" fill="url(#paint0_linear_72_2)"/>
<path d="M11.3479 1.81001V4.26001H14.6379V5.81401H11.3479V8.40401H15.0579V10H9.38788V0.214012H15.0579V1.81001H11.3479Z" fill="url(#paint1_linear_72_2)"/>
<path d="M23.6431 3.16801C23.4191 2.75735 23.1111 2.44468 22.7191 2.23001C22.3271 2.01535 21.8697 1.90801 21.347 1.90801C20.7684 1.90801 20.2551 2.03868 19.8071 2.30001C19.3591 2.56135 19.009 2.93468 18.757 3.42001C18.505 3.90535 18.3791 4.46535 18.3791 5.10001C18.3791 5.75335 18.505 6.32268 18.757 6.80801C19.0184 7.29335 19.3777 7.66668 19.8351 7.92801C20.2924 8.18935 20.8244 8.32001 21.4311 8.32001C22.1777 8.32001 22.7891 8.12401 23.2651 7.73201C23.7411 7.33068 24.0537 6.77535 24.2031 6.06601H20.8431V4.56801H26.1351V6.27601C26.0044 6.95735 25.7244 7.58735 25.2951 8.16601C24.8657 8.74468 24.3104 9.21135 23.6291 9.56601C22.9571 9.91135 22.201 10.084 21.361 10.084C20.4184 10.084 19.5644 9.87401 18.799 9.45401C18.043 9.02468 17.4457 8.43201 17.007 7.67601C16.5777 6.92001 16.3631 6.06135 16.3631 5.10001C16.3631 4.13868 16.5777 3.28001 17.007 2.52401C17.4457 1.75868 18.043 1.16601 18.799 0.746013C19.5644 0.316679 20.4137 0.102013 21.347 0.102013C22.4484 0.102013 23.4051 0.372679 24.2171 0.914012C25.0291 1.44601 25.5891 2.19735 25.8971 3.16801H23.6431Z" fill="url(#paint2_linear_72_2)"/>
<path d="M29.5451 0.228013V10H27.5851V0.228013H29.5451Z" fill="url(#paint3_linear_72_2)"/>
<path d="M34.8556 10.098C34.1743 10.098 33.5583 9.98135 33.0076 9.74801C32.4663 9.51468 32.037 9.17868 31.7196 8.74001C31.4023 8.30135 31.239 7.78335 31.2296 7.18601H33.3296C33.3576 7.58735 33.4976 7.90468 33.7496 8.13801C34.011 8.37135 34.3656 8.48801 34.8136 8.48801C35.271 8.48801 35.6303 8.38068 35.8916 8.16601C36.153 7.94201 36.2836 7.65268 36.2836 7.29801C36.2836 7.00868 36.195 6.77068 36.0176 6.58401C35.8403 6.39735 35.6163 6.25268 35.3456 6.15001C35.0843 6.03801 34.7203 5.91668 34.2536 5.78601C33.619 5.59935 33.101 5.41735 32.6996 5.24001C32.3076 5.05335 31.967 4.77801 31.6776 4.41401C31.3976 4.04068 31.2576 3.54601 31.2576 2.93001C31.2576 2.35135 31.4023 1.84735 31.6916 1.41801C31.981 0.988679 32.387 0.662012 32.9096 0.438012C33.4323 0.204679 34.0296 0.0880127 34.7016 0.0880127C35.7096 0.0880127 36.5263 0.335346 37.1516 0.830012C37.7863 1.31535 38.1363 1.99668 38.2016 2.87401H36.0456C36.027 2.53801 35.8823 2.26268 35.6116 2.04801C35.3503 1.82401 35.0003 1.71201 34.5616 1.71201C34.179 1.71201 33.871 1.81001 33.6376 2.00601C33.4136 2.20201 33.3016 2.48668 33.3016 2.86001C33.3016 3.12135 33.3856 3.34068 33.5536 3.51801C33.731 3.68601 33.9456 3.82601 34.1976 3.93801C34.459 4.04068 34.823 4.16201 35.2896 4.30201C35.9243 4.48868 36.4423 4.67535 36.8436 4.86201C37.245 5.04868 37.5903 5.32868 37.8796 5.70201C38.169 6.07535 38.3136 6.56535 38.3136 7.17201C38.3136 7.69468 38.1783 8.18001 37.9076 8.62801C37.637 9.07601 37.2403 9.43535 36.7176 9.70601C36.195 9.96735 35.5743 10.098 34.8556 10.098Z" fill="url(#paint4_linear_72_2)"/>
<path d="M46.6629 0.228013V1.81001H44.0589V10H42.0989V1.81001H39.4949V0.228013H46.6629Z" fill="url(#paint5_linear_72_2)"/>
<path d="M50.053 1.81001V4.26001H53.343V5.81401H50.053V8.40401H53.763V10H48.093V0.214012H53.763V1.81001H50.053Z" fill="url(#paint6_linear_72_2)"/>
<path d="M60.5841 10L58.4281 6.19201H57.5041V10H55.5441V0.228013H59.2121C59.9681 0.228013 60.6121 0.363346 61.1441 0.634012C61.6761 0.895346 62.0728 1.25468 62.3341 1.71201C62.6048 2.16001 62.7401 2.66401 62.7401 3.22401C62.7401 3.86801 62.5535 4.45135 62.1801 4.97401C61.8068 5.48735 61.2515 5.84201 60.5141 6.03801L62.8521 10H60.5841ZM57.5041 4.72201H59.1421C59.6741 4.72201 60.0708 4.59601 60.3321 4.34401C60.5935 4.08268 60.7241 3.72335 60.7241 3.26601C60.7241 2.81801 60.5935 2.47268 60.3321 2.23001C60.0708 1.97801 59.6741 1.85201 59.1421 1.85201H57.5041V4.72201Z" fill="url(#paint7_linear_72_2)"/>
<defs>
<linearGradient id="paint0_linear_72_2" x1="-1" y1="5.11111" x2="64" y2="5.11111" gradientUnits="userSpaceOnUse">
<stop/>
<stop offset="1" stop-color="#D7562E"/>
</linearGradient>
<linearGradient id="paint1_linear_72_2" x1="-1" y1="5.11111" x2="64" y2="5.11111" gradientUnits="userSpaceOnUse">
<stop/>
<stop offset="1" stop-color="#D7562E"/>
</linearGradient>
<linearGradient id="paint2_linear_72_2" x1="-1" y1="5.11111" x2="64" y2="5.11111" gradientUnits="userSpaceOnUse">
<stop/>
<stop offset="1" stop-color="#D7562E"/>
</linearGradient>
<linearGradient id="paint3_linear_72_2" x1="-1" y1="5.11111" x2="64" y2="5.11111" gradientUnits="userSpaceOnUse">
<stop/>
<stop offset="1" stop-color="#D7562E"/>
</linearGradient>
<linearGradient id="paint4_linear_72_2" x1="-1" y1="5.11111" x2="64" y2="5.11111" gradientUnits="userSpaceOnUse">
<stop/>
<stop offset="1" stop-color="#D7562E"/>
</linearGradient>
<linearGradient id="paint5_linear_72_2" x1="-1" y1="5.11111" x2="64" y2="5.11111" gradientUnits="userSpaceOnUse">
<stop/>
<stop offset="1" stop-color="#D7562E"/>
</linearGradient>
<linearGradient id="paint6_linear_72_2" x1="-1" y1="5.11111" x2="64" y2="5.11111" gradientUnits="userSpaceOnUse">
<stop/>
<stop offset="1" stop-color="#D7562E"/>
</linearGradient>
<linearGradient id="paint7_linear_72_2" x1="-1" y1="5.11111" x2="64" y2="5.11111" gradientUnits="userSpaceOnUse">
<stop/>
<stop offset="1" stop-color="#D7562E"/>
</linearGradient>
</defs>
</svg>
